<svg width="867" height="171" viewBox="0 0 867 171" fill="none" xmlns="http://www.w3.org/2000/svg">
<path d="M804.545 0.960221C805.647 1.50441 806.912 1.32755 808.191 1.68127C809.824 2.13022 810.776 3.04173 811.864 4.29336C824.353 29.5572 835.754 55.4604 847.563 81.0644C853.113 93.0909 866.283 120.409 866.786 121.974C867.684 124.708 865.643 127.538 862.759 127.524C862.31 127.524 861.916 127.524 861.657 127.538C855.957 127.824 848.121 127.864 842.434 127.497C838.434 127.239 835.686 126.708 833.496 123.171C831.074 119.266 829.7 114.028 827.618 109.906C824.149 103.022 821.224 105.784 815.469 108.097C800.219 114.219 785.458 121.81 769.853 126.926C765.023 127.619 762.207 125.973 759.092 130.789C756.82 134.299 755.487 138.027 752.875 141.659C735.624 165.495 710.02 165.495 683.314 168.597C679.287 169.059 669.75 171.236 666.458 169.644C664.553 168.719 663.696 166.012 663.315 164.08C659.642 144.952 659.424 123.933 655.996 104.641C655.737 103.226 655.166 98.8456 652.908 100.043C651.996 100.533 648.16 108.587 647.098 110.287C623.848 147.577 563.212 148.326 539.35 111.43C538.016 109.376 534.017 100.846 532.534 100.124C532.194 99.9612 531.731 99.8388 531.35 99.9204C530.234 100.165 530.044 106.614 530.071 107.784C530.262 115.933 531.16 126.232 530.357 134.259C529.718 140.721 525.214 139.728 520.398 139.986C514.82 140.285 508.535 140.775 502.944 140.299C496.658 139.768 496.726 134.49 496.876 129.306C497.175 118.844 497.638 105.92 496.971 95.4989C496.767 92.3698 496.441 88.9142 492.604 91.4991C486.319 96.9818 480.931 104.845 474.605 110.097C470.605 113.416 467.98 112.954 464.13 109.729C458.348 104.886 452.919 96.424 447.096 91.9073C444.593 89.9618 442.825 90.2339 442.539 93.635C441.764 102.723 442.77 112.409 442.852 121.497C442.893 125.728 443.41 133.946 441.804 137.592C441.26 138.816 440.321 139.632 439.029 140.04C434.118 141.619 427.139 140.585 422.037 140.421C418.744 140.313 414.364 141.251 411.48 139.442C406.446 136.286 411.711 125.688 405.983 124.749C401.97 124.082 397.766 127.048 393.494 124.3C389.848 121.946 385.631 112.899 382.474 109.185C379.318 105.471 377.291 107.131 373.795 109.185C360.367 117.089 347.347 127.606 333.824 135.075C326.355 139.197 318.22 138.68 310.193 140.707C302.166 142.734 306.207 148.489 304.152 154.543C303.078 157.727 299.731 158.08 296.738 158.284C283.12 159.169 240.796 158.638 233.558 158.135C230.742 157.944 227.191 157.454 225.899 154.625C223.885 150.19 225.79 141.333 225.055 136.354C224.552 132.939 221.015 132.952 218.28 132.667C209.859 131.782 200.009 131.946 191.805 130.476C185.588 129.361 184.391 124.926 181.901 119.824C178.269 112.355 175.004 103.077 170.8 96.0975C169.616 94.1384 168.569 92.9412 166.297 92.2338C164.705 91.744 160.093 91.1046 158.46 91.159C155.127 91.2814 153.617 93.7711 153.291 96.8049C152.502 104.247 152.706 112.736 151.4 120.042C150.57 124.708 148.379 126.436 143.604 126.218C138.788 126.001 133.782 125.293 128.966 124.776C124.558 124.3 120.816 125.103 118.871 120.219C118.504 119.293 118.136 115.974 116.844 116.096C115.034 116.26 109.565 123.361 107.701 125.089C79.2542 151.278 28.1823 146.244 8.7549 111.498C4.80956 104.437 2.49677 96.7505 0.496885 88.955C0.973048 81.6221 -0.0745098 73.5546 0.551304 66.3169C1.74851 52.5762 11.7343 37.203 22.4548 28.7545C49.9362 7.10952 98.9537 9.27266 115.17 43.638C117.891 49.3928 118 52.5762 111.252 54.2904C106.994 55.3788 93.2261 57.9637 89.3896 57.4331C85.8116 56.9433 82.9954 52.3586 80.3017 50.1274C68.833 40.6314 48.5077 44.2774 39.8551 55.9774C26.0328 74.6566 36.4404 107.022 60.3165 110.995C71.6628 112.886 85.1178 106.791 90.0971 96.2471C92.6139 90.9005 91.7568 87.5946 98.532 85.8668C104.6 84.3159 112.273 84.207 118.014 82.3704C123.197 80.697 122.19 75.6361 122.639 71.3098C123.088 66.9836 123.66 62.4804 124.068 58.0725C125.564 41.7061 126.068 24.1153 128.408 7.96661C129.197 2.48394 130.802 0.592896 136.598 0.796966C146.012 1.12348 156.719 2.76964 166.229 3.66755C183.969 5.34092 200.186 4.61987 213.301 18.7551C218.062 23.884 219.287 28.6049 222.443 34.346C225.055 39.1212 225.654 35.8017 228.796 34.6589C230.007 34.21 232.184 33.8699 233.49 33.7746C245.87 32.9311 287.841 33.4209 295.269 33.9243C301.663 34.3596 303.323 35.6929 303.785 42.1415C304.085 46.3317 304.152 55.1203 303.241 59.052C302.466 62.3852 299.704 63.2695 296.575 63.5416C285.664 64.4667 273.256 62.5212 262.373 63.4463C259.992 63.6504 258.373 65.0789 258.046 67.4869C257.679 70.2215 257.597 79.7447 258.006 82.4112C258.414 85.0777 260.522 85.3906 262.89 84.9009C272.114 81.6085 281.174 76.9286 290.371 73.7178C295.337 71.9765 298.289 70.9833 301.2 76.3299C303.554 80.6562 304.819 86.928 307.445 90.9821C310.275 95.3628 311.73 90.3699 312.574 87.6218C318.805 67.3645 323.389 46.3861 329.035 25.9383C330.056 22.2379 332.219 12.2521 334.559 9.83045C336.64 7.68091 342.926 6.56533 345.81 6.98708C348.694 7.40882 350 9.17743 351.796 11.1229C369.033 34.8766 384.325 60.1812 401.779 83.7717C402.745 85.0913 407.235 92.0705 408.527 87.8803C408.772 87.1048 409.004 84.5063 409.058 83.5268C409.303 79.4454 408.731 75.3504 408.704 71.337C408.582 54.7394 408.908 38.1417 408.867 21.544C409.779 14.6193 419.765 15.4492 423.846 19.1088C437.668 33.1896 449.967 48.7805 463.681 62.9294C467.816 67.2012 469.272 68.6161 473.979 63.8273C487.271 50.3179 499.379 34.8222 512.616 21.2311C516.467 17.2722 519.16 15.2587 525.106 16.1294C529.513 16.7824 530.003 20.3468 530.248 24.2242C530.697 31.285 529.541 39.2301 530.18 46.1821C530.371 48.1955 531.105 50.9981 533.119 48.4268C534.996 46.0324 536.316 42.0871 537.935 39.2981C560.573 0.443247 620.665 0.0215012 645.615 36.0602C648.472 40.196 650.404 47.2432 656.281 46.9983C684.348 44.5903 714.958 33.8562 739.651 52.7803C747.446 58.7527 753.092 66.521 757.772 75.0783C760.493 77.1054 761.527 74.9151 762.711 72.7519L793.376 6.4565C794.886 3.74917 796.355 2.10301 799.511 1.43638C800.164 1.30034 801.81 1.06906 802.395 1.01464H804.49L804.545 0.960221ZM162.324 33.5978C160.365 33.9515 158.909 35.9922 158.61 37.8968C158.093 41.1347 158.161 44.9985 157.889 48.318C157.658 51.2022 156.909 54.5625 156.869 57.4059C156.828 60.3989 158.76 62.2219 161.576 62.7389C165.44 63.4599 174.391 64.2626 178.296 64.1946C193.03 63.9361 196.921 41.23 183.833 35.9922C180.187 34.5365 170.596 33.6658 166.433 33.5161C165.195 33.4753 163.521 33.3801 162.324 33.5978ZM589.714 41.6381C549.254 45.3794 556.641 114.627 599.224 105.811C634.813 98.4375 629.399 37.9649 589.714 41.6381ZM802.151 56.5624C801.402 56.7801 800.572 58.1405 800.205 58.8072C797.43 63.8681 793.498 73.5002 791.525 79.0509C790.383 82.2752 789.648 85.1049 794.246 84.207C796.872 83.6901 805.919 79.9488 808.531 78.6155C811.143 77.2823 812.218 75.9626 811.592 72.7791C811.225 70.9289 806.912 61.4193 805.81 59.4058C805.089 58.0997 803.851 56.0726 802.151 56.5624ZM360.802 82.8602C361.999 81.6358 362.258 80.3977 361.891 78.6972C361.564 77.187 354.095 65.9768 352.735 64.5075C351.823 63.528 350.667 62.5893 349.306 63.4463C347.946 64.3034 346.245 72.5751 345.742 74.6022C344.749 78.6019 342.776 85.2682 342.463 89.1047C342.177 92.5195 344.014 92.9956 346.857 91.7304C348.898 90.8325 359.401 84.2615 360.802 82.833V82.8602ZM223.355 63.8681C222.103 64.1946 219.096 71.4051 218.171 72.9968C217.015 74.9695 215.178 77.5816 213.695 79.323C212.09 81.2004 205.41 86.5742 205.056 88.1116C204.92 88.7374 204.92 89.4992 204.975 90.1387C205.138 91.9209 210.28 102.138 211.641 103.335C213.301 104.804 214.593 104.696 216.566 104.138C219.627 103.281 224.538 101.199 225.123 97.7164C224.593 87.9211 226.13 76.7925 225.205 67.1468C225.123 66.2761 224.729 63.5144 223.355 63.8817V63.8681ZM699.259 71.2418C696.81 71.4051 692.81 71.7452 690.47 72.2213C687.708 72.7655 686.076 73.9627 685.708 76.9013C688.225 95.5805 690.103 114.382 693.041 132.98C694.239 135.877 696.32 136.068 699.163 135.918C715.176 135.116 727.556 128.653 731.202 112.178C735.909 90.8597 722.495 69.6909 699.272 71.2418H699.259ZM301.146 127.443C301.785 126.803 302.438 125.225 302.751 124.341C304.384 119.892 307.513 108.845 308.139 104.301C308.914 98.7232 307.785 98.9 303.35 100.573C289.473 105.825 275.964 112.246 262.101 117.552C257.257 119.634 255.883 127.252 261.679 128.925L297.949 128.953C298.833 128.857 300.52 128.055 301.146 127.443Z" fill="#E0E0E0"/>
</svg>
